<?xml version="1.0" encoding="UTF-8" standalone="no"?>
<!-- Created with Inkscape (http://www.inkscape.org/) -->

<svg
   width="210mm"
   height="297mm"
   viewBox="0 0 210 297"
   version="1.1"
   id="svg1"
   inkscape:version="1.4 (e7c3feb1, 2024-10-09)"
   sodipodi:docname="1.svg"
   inkscape:export-filename="1.jpg"
   inkscape:export-xdpi="96"
   inkscape:export-ydpi="96"
   xmlns:inkscape="http://www.inkscape.org/namespaces/inkscape"
   xmlns:sodipodi="http://sodipodi.sourceforge.net/DTD/sodipodi-0.dtd"
   xmlns:xlink="http://www.w3.org/1999/xlink"
   xmlns="http://www.w3.org/2000/svg"
   xmlns:svg="http://www.w3.org/2000/svg">
  <sodipodi:namedview
     id="namedview1"
     pagecolor="#ffffff"
     bordercolor="#000000"
     borderopacity="0.25"
     inkscape:showpageshadow="2"
     inkscape:pageopacity="0.0"
     inkscape:pagecheckerboard="0"
     inkscape:deskcolor="#d1d1d1"
     inkscape:document-units="mm"
     showguides="false"
     inkscape:zoom="0.89887065"
     inkscape:cx="425.53397"
     inkscape:cy="554.02855"
     inkscape:window-width="1488"
     inkscape:window-height="1553"
     inkscape:window-x="1511"
     inkscape:window-y="39"
     inkscape:window-maximized="0"
     inkscape:current-layer="layer2" />
  <defs
     id="defs1">
    <pattern
       inkscape:collect="always"
       xlink:href="#Wave"
       preserveAspectRatio="xMidYMid"
       id="pattern34"
       patternTransform="rotate(-45)"
       x="0"
       y="0" />
    <pattern
       patternUnits="userSpaceOnUse"
       width="24"
       height="10"
       preserveAspectRatio="xMidYMid"
       id="Wave"
       style="fill:#ff9b6b"
       x="0"
       y="0"
       inkscape:collect="always"
       inkscape:isstock="true"
       inkscape:label="Wave">
      <g
         id="wave_g"
         style="display:inline">
        <path
           d="M 12,-2 C 9.1666695,-2 7.1679672,-0.56445187 5.4179687,0.68554687 3.6679703,1.9355456 2.1666645,3 0,3 V 5 C 2.8333305,5 4.8320328,3.5644519 6.5820312,2.3144531 8.3320297,1.0644544 9.8333355,0 12,0 14.166665,0 15.667971,1.0644544 17.417969,2.3144531 19.167967,3.5644519 21.166669,5 24,5 V 3 C 21.833335,3 20.332029,1.9355456 18.582031,0.68554687 16.832033,-0.56445189 14.833331,-2 12,-2 Z"
           id="path33" />
        <path
           d="M 12,3 C 9.1666695,3 7.1679672,4.4355481 5.4179687,5.6855469 3.6679703,6.9355456 2.1666645,8 0,8 v 2 C 2.8333305,10 4.8320328,8.5644519 6.5820312,7.3144531 8.3320297,6.0644544 9.8333355,5 12,5 14.166665,5 15.667971,6.0644544 17.417969,7.3144531 19.167967,8.5644519 21.166669,10 24,10 V 8 C 21.833335,8 20.332029,6.9355456 18.582031,5.6855469 16.832033,4.4355481 14.833331,3 12,3 Z"
           id="path34" />
        <path
           d="M 12,8 C 9.1666695,8 7.1679672,9.4355481 5.4179687,10.685547 3.6679703,11.935546 2.1666645,13 0,13 v 2 C 2.8333305,15 4.8320328,13.564452 6.5820312,12.314453 8.3320297,11.064454 9.8333355,10 12,10 c 2.166665,0 3.667971,1.064454 5.417969,2.314453 C 19.167967,13.564452 21.166669,15 24,15 V 13 C 21.833335,13 20.332029,11.935546 18.582031,10.685547 16.832033,9.4355481 14.833331,8 12,8 Z"
           id="path5" />
      </g>
    </pattern>
    <clipPath
       clipPathUnits="userSpaceOnUse"
       id="clipPath5">
      <rect
         style="fill:#000000;stroke:#000000;stroke-width:0;stroke-linejoin:bevel;paint-order:stroke markers fill;stop-color:#000000"
         id="rect5-4"
         width="20"
         height="200"
         x="530"
         y="595" />
    </clipPath>
    <inkscape:perspective
       sodipodi:type="inkscape:persp3d"
       inkscape:vp_x="98.327713 : 216.7894 : 1"
       inkscape:vp_y="0 : 1000 : 0"
       inkscape:vp_z="-113.29729 : 189.70912 : 1"
       inkscape:persp3d-origin="-6.6722885 : 128.72944 : 1"
       id="perspective17" />
    <linearGradient
       id="linearGradient4"
       inkscape:collect="always">
      <stop
         style="stop-color:#ffffff;stop-opacity:1;"
         offset="0"
         id="stop4" />
      <stop
         style="stop-color:#93ff87;stop-opacity:1;"
         offset="0.33944952"
         id="stop6" />
      <stop
         style="stop-color:#1ad639;stop-opacity:1;"
         offset="1"
         id="stop5" />
    </linearGradient>
    <radialGradient
       inkscape:collect="always"
       xlink:href="#linearGradient4"
       id="radialGradient5"
       cx="130.69177"
       cy="234.30327"
       fx="130.69177"
       fy="234.30327"
       r="72.814537"
       gradientTransform="matrix(1,0,0,0.74219576,1.9446533e-6,61.957848)"
       gradientUnits="userSpaceOnUse" />
  </defs>
  <g
     inkscape:label="Layer 1"
     inkscape:groupmode="layer"
     id="layer1"
     sodipodi:insensitive="true">
    <rect
       style="fill:#73e3ff;fill-opacity:1;stroke:#11d6ff;stroke-width:3.25;stroke-dasharray:none;stroke-opacity:1"
       id="rect1"
       width="210"
       height="297"
       x="0"
       y="-297"
       transform="scale(1,-1)" />
  </g>
  <g
     inkscape:groupmode="layer"
     id="layer2"
     inkscape:label="Layer 2">
    <circle
       style="fill:#ff73ee;fill-opacity:1;stroke:#ec00bf;stroke-width:1.75;stroke-dasharray:none;stroke-dashoffset:0;stroke-opacity:1"
       id="path2"
       cx="83.889999"
       cy="89.049187"
       r="50.039642" />
    <path
       style="fill:#1770ff;fill-opacity:1;stroke:#ec00bf;stroke-width:0;stroke-dasharray:none;stroke-dashoffset:0;stroke-opacity:1"
       id="path3"
       sodipodi:type="arc"
       sodipodi:cx="155.12289"
       sodipodi:cy="44.741329"
       sodipodi:rx="24.43112"
       sodipodi:ry="24.43112"
       sodipodi:start="1.1170107"
       sodipodi:end="6.0039326"
       sodipodi:arc-type="slice"
       d="m 165.83279,66.699874 a 24.43112,24.43112 0 0 1 -27.68118,-4.384268 24.43112,24.43112 0 0 1 -5.34765,-27.511308 24.43112,24.43112 0 0 1 24.02316,-14.434576 24.43112,24.43112 0 0 1 21.78047,17.637477 l -23.4847,6.73413 z" />
    <rect
       style="fill:#ffb156;fill-opacity:0.66023201;stroke:url(#pattern34);stroke-width:5;stroke-dasharray:none;stroke-dashoffset:0;stroke-opacity:1;stroke-linejoin:miter;stroke-linecap:butt;paint-order:normal"
       id="rect4"
       width="105.08325"
       height="228.7106"
       x="94.625748"
       y="10.890981" />
    <ellipse
       style="fill:url(#radialGradient5);fill-opacity:1;stroke:#ecbf00;stroke-width:0;stroke-dasharray:none;stroke-dashoffset:0;stroke-opacity:1"
       id="path4"
       cx="130.69177"
       cy="235.85674"
       rx="71.814537"
       ry="53.042641" />
    <path
       sodipodi:type="star"
       style="fill:#91ff73;fill-opacity:1;stroke:#00ec1f;stroke-width:1.75;stroke-dasharray:5.25, 1.75;stroke-dashoffset:0;stroke-opacity:1"
       id="path1"
       inkscape:flatsided="true"
       sodipodi:sides="6"
       sodipodi:cx="39.148663"
       sodipodi:cy="35.910805"
       sodipodi:r1="24.39563"
       sodipodi:r2="21.127235"
       sodipodi:arg1="0.72564034"
       sodipodi:arg2="1.2492391"
       inkscape:rounded="0.03"
       inkscape:randomized="0"
       d="m 57.398415,52.100101 c -0.485679,0.547492 -22.428236,7.856965 -23.145218,7.710101 -0.716982,-0.146864 -18.018449,-15.49494 -18.249752,-16.189297 -0.231303,-0.694356 4.409787,-23.351904 4.895466,-23.899396 0.485678,-0.547493 22.428235,-7.856965 23.145217,-7.710101 0.716982,0.146864 18.018449,15.49494 18.249752,16.189296 0.231303,0.694357 -4.409787,23.351904 -4.895465,23.899397 z"
       transform="matrix(1.5547758,0,0,1.5547758,0.3887772,186.02647)" />
    <path
       sodipodi:type="spiral"
       style="fill:#f50909;fill-opacity:1;fill-rule:evenodd;stroke:#b90000;stroke-width:2;stroke-dasharray:none;stroke-opacity:1"
       id="path23"
       sodipodi:cx="144.37909"
       sodipodi:cy="204.27948"
       sodipodi:expansion="0.69999999"
       sodipodi:revolution="3.0999999"
       sodipodi:radius="42.515358"
       sodipodi:argument="-16.328615"
       sodipodi:t0="0"
       d="m 144.37909,204.27948 c -4.0701,2.90969 -5.96319,-3.00781 -4.24375,-5.93619 2.93274,-4.99475 10.03447,-4.41192 13.88712,-0.9578 5.84608,5.24134 4.87954,14.51835 -0.48677,19.70233 -7.03692,6.79783 -18.49967,5.43327 -24.82231,-1.60903 -7.73931,-8.62022 -5.99998,-22.15151 2.57303,-29.51347 10.07494,-8.65171 25.56557,-6.56096 33.89989,3.43922 9.53327,11.43877 7.1107,28.79659 -4.23738,38.05297 -12.73301,10.38604 -31.8805,7.64785 -42.01884,-4.98469 -11.21273,-13.97125 -8.17247,-34.84239 5.69209,-45.8295 15.16292,-12.016 37.70067,-8.68518 49.50836,6.36705 12.79819,16.3149 9.18671,40.46937 -7.01491,53.07319 -17.43246,13.56134 -43.15948,9.67785 -56.53794,-7.63967 -5.40307,-6.9939 -8.46313,-15.66037 -8.7127,-24.49033"
       transform="translate(-93.87771,-162.35114)" />
    <g
       sodipodi:type="inkscape:box3d"
       id="g17"
       style="fill:#f6ff73;fill-opacity:0.571429;stroke:#ecbf00;stroke-width:0;stroke-dasharray:none;stroke-dashoffset:0;stroke-opacity:1"
       inkscape:perspectiveID="#perspective17"
       inkscape:corner0="5.9423916 : -0.1073787 : 0 : 1"
       inkscape:corner7="1.1488986 : -0.2464078 : 0.62550548 : 1">
      <path
         sodipodi:type="inkscape:box3dside"
         id="path22"
         style="fill:#e9e9ff;fill-rule:evenodd;stroke:none;stroke-linejoin:round"
         inkscape:box3dsidetype="11"
         d="m 66.961987,108.27356 -54.192323,48.48592 v 50.11134 l 54.192323,-80.22636 z"
         points="12.769664,156.75948 12.769664,206.87082 66.961987,126.64446 66.961987,108.27356 " />
      <path
         sodipodi:type="inkscape:box3dside"
         id="path17"
         style="fill:#353564;fill-rule:evenodd;stroke:none;stroke-linejoin:round"
         inkscape:box3dsidetype="6"
         d="m 83.203244,108.36209 v 20.02611 l -16.241257,-1.74374 v -18.3709 z"
         points="83.203244,128.3882 66.961987,126.64446 66.961987,108.27356 83.203244,108.36209 " />
      <path
         sodipodi:type="inkscape:box3dside"
         id="path21"
         style="fill:#89cf92;fill-opacity:0.405405;fill-rule:evenodd;stroke:none;stroke-linejoin:round"
         inkscape:box3dsidetype="13"
         d="M 83.203244,128.3882 49.465473,235.85674 12.769664,206.87082 66.961987,126.64446 Z"
         points="49.465473,235.85674 12.769664,206.87082 66.961987,126.64446 83.203244,128.3882 " />
      <path
         sodipodi:type="inkscape:box3dside"
         id="path18"
         style="fill:#84df6d;fill-opacity:1;fill-rule:evenodd;stroke:none;stroke-linejoin:round"
         inkscape:box3dsidetype="5"
         d="M 83.203244,108.36209 49.465473,171.1589 12.769664,156.75948 66.961987,108.27356 Z"
         points="49.465473,171.1589 12.769664,156.75948 66.961987,108.27356 83.203244,108.36209 " />
      <path
         sodipodi:type="inkscape:box3dside"
         id="path20"
         style="fill:#baff75;fill-opacity:0.413127;fill-rule:evenodd;stroke:none;stroke-linejoin:round"
         inkscape:box3dsidetype="14"
         d="m 49.465473,171.1589 v 64.69784 L 12.769664,206.87082 v -50.11134 z"
         points="49.465473,235.85674 12.769664,206.87082 12.769664,156.75948 49.465473,171.1589 " />
      <path
         sodipodi:type="inkscape:box3dside"
         id="path19"
         style="fill:#5d9f4d;fill-opacity:1;fill-rule:evenodd;stroke:none;stroke-linejoin:round"
         inkscape:box3dsidetype="3"
         d="M 83.203244,108.36209 49.465473,171.1589 v 64.69784 L 83.203244,128.3882 Z"
         points="49.465473,171.1589 49.465473,235.85674 83.203244,128.3882 83.203244,108.36209 " />
    </g>
  </g>
</svg>
