<?xml version="1.0" encoding="UTF-8" standalone="no"?>
<!-- Created with Inkscape (http://www.inkscape.org/) -->

<svg
   width="210mm"
   height="297mm"
   viewBox="0 0 210 297"
   version="1.1"
   id="svg1"
   inkscape:version="1.4 (e7c3feb1, 2024-10-09)"
   sodipodi:docname="3.svg"
   inkscape:export-filename="3.jpg"
   inkscape:export-xdpi="96"
   inkscape:export-ydpi="96"
   xmlns:inkscape="http://www.inkscape.org/namespaces/inkscape"
   xmlns:sodipodi="http://sodipodi.sourceforge.net/DTD/sodipodi-0.dtd"
   xmlns="http://www.w3.org/2000/svg"
   xmlns:svg="http://www.w3.org/2000/svg">
  <sodipodi:namedview
     id="namedview1"
     pagecolor="#ffffff"
     bordercolor="#000000"
     borderopacity="0.25"
     inkscape:showpageshadow="2"
     inkscape:pageopacity="0.0"
     inkscape:pagecheckerboard="0"
     inkscape:deskcolor="#d1d1d1"
     inkscape:document-units="mm"
     inkscape:zoom="1.0147965"
     inkscape:cx="380.86455"
     inkscape:cy="505.52009"
     inkscape:window-width="1488"
     inkscape:window-height="1553"
     inkscape:window-x="1511"
     inkscape:window-y="39"
     inkscape:window-maximized="0"
     inkscape:current-layer="layer1" />
  <defs
     id="defs1" />
  <g
     inkscape:label="Layer 1"
     inkscape:groupmode="layer"
     id="layer1">
    <path
       style="fill:#66cf00;fill-opacity:1;stroke:#50b100;stroke-width:2.60907;stroke-linecap:round;stroke-dasharray:none;stroke-opacity:1"
       d="M 118.88422,42.497666 C 101.22061,59.777278 54.193747,93.369443 48.229804,130.0477 c -7.679825,47.23093 29.183344,56.06273 42.23905,70.6544 8.720526,9.74648 64.714396,-41.5527 69.886426,-69.88642 8.83181,-48.382908 -41.47106,-88.318014 -41.47106,-88.318014 z"
       id="path1"
       sodipodi:nodetypes="csssc" />
    <path
       style="fill:#50b100;fill-opacity:1;stroke:none;stroke-width:2.60907;stroke-linecap:round;stroke-dasharray:none;stroke-opacity:1"
       d="m 118.88422,42.497664 c 2.8924,78.698446 -27.654814,117.508776 -28.415367,158.204436 -0.720732,38.56483 -0.383989,46.84695 -0.383989,46.84695 l 10.751756,-1.15197 c -0.83153,2.80643 -8.773916,-46.54482 -3.18431,-67.06396 6.08187,-22.32624 28.74138,-88.675217 21.23191,-136.835456 z"
       id="path2"
       sodipodi:nodetypes="csccsc" />
    <path
       style="fill:#50b100;fill-opacity:1;stroke:none;stroke-width:2;stroke-linecap:round;stroke-dasharray:none;stroke-opacity:1"
       d="m 99.682383,172.21485 c 8.895567,-2.54673 8.555307,-18.70683 45.331467,-19.72626 -10.82849,-1.0254 -29.42246,-3.91783 -43.64808,13.98361"
       id="path3"
       sodipodi:nodetypes="ccc" />
    <path
       style="fill:#50b100;fill-opacity:1;stroke:none;stroke-width:2;stroke-linecap:round;stroke-dasharray:none;stroke-opacity:1"
       d="m 107.5079,144.00887 c 8.89557,-2.54673 11.89999,-12.71427 47.83998,-12.75817 -10.82849,-1.0254 -29.36542,-3.20632 -46.51764,8.42384"
       id="path3-2"
       sodipodi:nodetypes="ccc" />
    <path
       style="fill:#50b100;fill-opacity:1;stroke:none;stroke-width:2;stroke-linecap:round;stroke-dasharray:none;stroke-opacity:1"
       d="m 113.54595,119.76146 c 13.06115,-10.61857 17.99937,-10.78149 44.06055,-6.68847 -10.82849,-1.0254 -29.23651,-11.56637 -43.55866,4.30891"
       id="path3-2-9"
       sodipodi:nodetypes="ccc" />
    <path
       style="fill:#50b100;fill-opacity:1;stroke:none;stroke-width:2;stroke-linecap:round;stroke-dasharray:none;stroke-opacity:1"
       d="m 117.81679,96.192184 c 8.78553,-12.518893 21.39789,-9.249648 33.12987,-4.578463 -9.02115,-5.297297 -18.95741,-11.13075 -32.45804,-0.348885"
       id="path3-2-9-8"
       sodipodi:nodetypes="ccc" />
    <path
       style="fill:#50b100;fill-opacity:1;stroke:none;stroke-width:2;stroke-linecap:round;stroke-dasharray:none;stroke-opacity:1"
       d="m 119.66022,73.10568 c 4.23802,-7.64731 10.71416,-8.062567 19.94008,-3.655178 -4.27283,-4.769705 -14.34098,-8.097098 -19.26825,-1.27217"
       id="path3-2-9-8-3"
       sodipodi:nodetypes="ccc" />
    <path
       style="fill:#50b100;fill-opacity:1;stroke:none;stroke-width:2;stroke-linecap:round;stroke-dasharray:none;stroke-opacity:1"
       d="M 95.360262,170.88874 C 83.888757,153.48988 76.302572,150.86911 53.310791,155.88855 61.513684,151.975 85.609929,143.41559 96.422275,167.09334"
       id="path3-1"
       sodipodi:nodetypes="ccc" />
    <path
       style="fill:#50b100;fill-opacity:1;stroke:none;stroke-width:2;stroke-linecap:round;stroke-dasharray:none;stroke-opacity:1"
       d="m 103.93148,142.77372 c -3.65723,-7.18568 -28.966359,-18.49058 -49.940452,-8.29466 12.797686,-7.45811 36.767029,-9.85717 50.899812,5.18627"
       id="path3-2-0"
       sodipodi:nodetypes="ccc" />
    <path
       style="fill:#50b100;fill-opacity:1;stroke:none;stroke-width:2;stroke-linecap:round;stroke-dasharray:none;stroke-opacity:1"
       d="m 110.68973,119.13195 c -9.2751,-11.46894 -22.250985,-17.37485 -49.335231,-5.80555 11.615467,-7.24252 34.317709,-14.416072 49.895031,3.55531"
       id="path3-2-9-3"
       sodipodi:nodetypes="ccc" />
    <path
       style="fill:#50b100;fill-opacity:1;stroke:none;stroke-width:2;stroke-linecap:round;stroke-dasharray:none;stroke-opacity:1"
       d="M 115.52883,96.176147 C 106.7433,83.657254 88.330315,87.470308 76.598335,92.141493 c 9.02115,-5.297297 26.042015,-10.592871 39.542645,0.188994"
       id="path3-2-9-8-0"
       sodipodi:nodetypes="ccc" />
    <path
       style="fill:#50b100;fill-opacity:1;stroke:none;stroke-width:2;stroke-linecap:round;stroke-dasharray:none;stroke-opacity:1"
       d="m 118.42935,71.640847 c -4.23802,-7.64731 -14.70209,-5.524793 -23.928007,-1.117404 4.272827,-4.769705 19.224997,-9.255479 24.152267,-2.430551"
       id="path3-2-9-8-3-0"
       sodipodi:nodetypes="ccc" />
  </g>
</svg>
