<?xml version="1.0" encoding="UTF-8" standalone="no"?>
<!-- Created with Inkscape (http://www.inkscape.org/) -->

<svg
   width="468.45108mm"
   height="351.46286mm"
   viewBox="0 0 468.45108 351.46286"
   version="1.1"
   id="svg1"
   inkscape:version="1.4 (e7c3feb1, 2024-10-09)"
   sodipodi:docname="lab10.svg"
   xmlns:inkscape="http://www.inkscape.org/namespaces/inkscape"
   xmlns:sodipodi="http://sodipodi.sourceforge.net/DTD/sodipodi-0.dtd"
   xmlns:xlink="http://www.w3.org/1999/xlink"
   xmlns="http://www.w3.org/2000/svg"
   xmlns:svg="http://www.w3.org/2000/svg">
  <sodipodi:namedview
     id="namedview1"
     pagecolor="#ffffff"
     bordercolor="#000000"
     borderopacity="0.25"
     inkscape:showpageshadow="2"
     inkscape:pageopacity="0.0"
     inkscape:pagecheckerboard="0"
     inkscape:deskcolor="#d1d1d1"
     inkscape:document-units="mm"
     inkscape:zoom="1.074954"
     inkscape:cx="1163.3056"
     inkscape:cy="814.45343"
     inkscape:window-width="1104"
     inkscape:window-height="1020"
     inkscape:window-x="690"
     inkscape:window-y="53"
     inkscape:window-maximized="0"
     inkscape:current-layer="layer2"
     showguides="false" />
  <defs
     id="defs1">
    <linearGradient
       id="linearGradient104"
       inkscape:collect="always">
      <stop
         style="stop-color:#d7d7d7;stop-opacity:1;"
         offset="0"
         id="stop105" />
      <stop
         style="stop-color:#2e2e2e;stop-opacity:1;"
         offset="1"
         id="stop104" />
    </linearGradient>
    <linearGradient
       id="linearGradient102"
       inkscape:collect="always">
      <stop
         style="stop-color:#ffecbc;stop-opacity:1;"
         offset="0"
         id="stop102" />
      <stop
         style="stop-color:#c7a36b;stop-opacity:1;"
         offset="1"
         id="stop103" />
    </linearGradient>
    <linearGradient
       id="linearGradient98"
       inkscape:collect="always">
      <stop
         style="stop-color:#ffba00;stop-opacity:1;"
         offset="0"
         id="stop98" />
      <stop
         style="stop-color:#ffeac1;stop-opacity:1;"
         offset="1"
         id="stop99" />
    </linearGradient>
    <linearGradient
       id="linearGradient92"
       inkscape:collect="always">
      <stop
         style="stop-color:#ffabab;stop-opacity:1;"
         offset="0"
         id="stop92" />
      <stop
         style="stop-color:#ff2727;stop-opacity:1;"
         offset="1"
         id="stop93" />
    </linearGradient>
    <linearGradient
       id="linearGradient88"
       inkscape:collect="always">
      <stop
         style="stop-color:#e18114;stop-opacity:1;"
         offset="0"
         id="stop88" />
      <stop
         style="stop-color:#f4d2af;stop-opacity:1;"
         offset="1"
         id="stop89" />
    </linearGradient>
    <linearGradient
       id="linearGradient85"
       inkscape:collect="always">
      <stop
         style="stop-color:#1b1b1b;stop-opacity:1;"
         offset="0"
         id="stop86" />
      <stop
         style="stop-color:#3e3e3e;stop-opacity:1;"
         offset="1"
         id="stop87" />
    </linearGradient>
    <linearGradient
       id="linearGradient83"
       inkscape:collect="always">
      <stop
         style="stop-color:#d7d7d7;stop-opacity:1;"
         offset="0"
         id="stop84" />
      <stop
         style="stop-color:#bcbcbc;stop-opacity:1;"
         offset="1"
         id="stop85" />
    </linearGradient>
    <linearGradient
       id="linearGradient80"
       inkscape:collect="always">
      <stop
         style="stop-color:#ffffff;stop-opacity:1;"
         offset="0"
         id="stop81" />
      <stop
         style="stop-color:#a2a2a2;stop-opacity:1;"
         offset="0.5"
         id="stop83" />
      <stop
         style="stop-color:#f4f4f4;stop-opacity:1;"
         offset="1"
         id="stop82" />
    </linearGradient>
    <linearGradient
       id="linearGradient74"
       inkscape:collect="always">
      <stop
         style="stop-color:#e8e8e8;stop-opacity:1;"
         offset="0"
         id="stop74" />
      <stop
         style="stop-color:#ffffff;stop-opacity:1;"
         offset="1"
         id="stop75" />
    </linearGradient>
    <linearGradient
       id="linearGradient72"
       inkscape:collect="always">
      <stop
         style="stop-color:#d7d7d7;stop-opacity:1;"
         offset="0"
         id="stop72" />
      <stop
         style="stop-color:#ffffff;stop-opacity:1;"
         offset="1"
         id="stop73" />
    </linearGradient>
    <inkscape:path-effect
       effect="powermask"
       id="path-effect27"
       is_visible="true"
       lpeversion="1"
       uri="#mask-powermask-path-effect27"
       invert="false"
       hide_mask="false"
       background="true"
       background_color="#ffffffff" />
    <filter
       style="color-interpolation-filters:sRGB;"
       inkscape:label="Drop Shadow"
       id="filter59"
       x="-0.014809084"
       y="-0.0072967977"
       width="1.0199601"
       height="1.0106972">
      <feFlood
         result="flood"
         in="SourceGraphic"
         flood-opacity="0.145098"
         flood-color="rgb(0,0,0)"
         id="feFlood58" />
      <feGaussianBlur
         result="blur"
         in="SourceGraphic"
         stdDeviation="0.400000"
         id="feGaussianBlur58" />
      <feOffset
         result="offset"
         in="blur"
         dx="-1.800000"
         dy="-1.100000"
         id="feOffset58" />
      <feComposite
         result="comp1"
         operator="in"
         in="flood"
         in2="offset"
         id="feComposite58" />
      <feComposite
         result="comp2"
         operator="over"
         in="SourceGraphic"
         in2="comp1"
         id="feComposite59" />
    </filter>
    <linearGradient
       inkscape:collect="always"
       xlink:href="#linearGradient72"
       id="linearGradient73"
       x1="222.25012"
       y1="279.85001"
       x2="234.22549"
       y2="316.88919"
       gradientUnits="userSpaceOnUse" />
    <linearGradient
       inkscape:collect="always"
       xlink:href="#linearGradient74"
       id="linearGradient75"
       x1="205.48018"
       y1="291.061"
       x2="178.3075"
       y2="239.84502"
       gradientUnits="userSpaceOnUse" />
    <linearGradient
       inkscape:collect="always"
       xlink:href="#linearGradient80"
       id="linearGradient82"
       x1="272.02731"
       y1="191.69472"
       x2="281.10532"
       y2="197.89449"
       gradientUnits="userSpaceOnUse"
       spreadMethod="reflect" />
    <radialGradient
       inkscape:collect="always"
       xlink:href="#linearGradient83"
       id="radialGradient85"
       cx="279.44592"
       cy="199.55388"
       fx="279.44592"
       fy="199.55388"
       r="1.6593995"
       gradientUnits="userSpaceOnUse" />
    <linearGradient
       inkscape:collect="always"
       xlink:href="#linearGradient85"
       id="linearGradient87"
       x1="282.39658"
       y1="199.55388"
       x2="286.89433"
       y2="199.55388"
       gradientUnits="userSpaceOnUse" />
    <linearGradient
       inkscape:collect="always"
       xlink:href="#linearGradient88"
       id="linearGradient89"
       x1="359.84409"
       y1="173.95003"
       x2="363.7316"
       y2="173.95003"
       gradientUnits="userSpaceOnUse"
       spreadMethod="repeat"
       gradientTransform="matrix(1,0,0,0.8958452,0,19.899134)" />
    <linearGradient
       inkscape:collect="always"
       xlink:href="#linearGradient98"
       id="linearGradient91"
       x1="359.84332"
       y1="298.79843"
       x2="361.67078"
       y2="298.79843"
       gradientUnits="userSpaceOnUse"
       spreadMethod="reflect"
       gradientTransform="translate(9.5367431e-6,-0.14928489)" />
    <radialGradient
       inkscape:collect="always"
       xlink:href="#linearGradient92"
       id="radialGradient93"
       cx="362.68964"
       cy="307.30029"
       fx="362.68964"
       fy="307.30029"
       r="4.4053793"
       gradientTransform="matrix(0.71576131,0,0,0.88958527,103.32443,33.580412)"
       gradientUnits="userSpaceOnUse" />
    <linearGradient
       inkscape:collect="always"
       xlink:href="#linearGradient98"
       id="linearGradient99"
       x1="358.61719"
       y1="297.19681"
       x2="361.03329"
       y2="297.19681"
       gradientUnits="userSpaceOnUse"
       spreadMethod="reflect"
       gradientTransform="matrix(0.89108073,0,0,1,39.673777,-0.15660784)" />
    <linearGradient
       inkscape:collect="always"
       xlink:href="#linearGradient98"
       id="linearGradient100"
       gradientUnits="userSpaceOnUse"
       x1="358.61719"
       y1="297.19681"
       x2="361.03329"
       y2="297.19681"
       spreadMethod="reflect"
       gradientTransform="matrix(0.89108073,0,0,1,39.673777,3.547559)" />
    <linearGradient
       inkscape:collect="always"
       xlink:href="#linearGradient102"
       id="linearGradient103"
       x1="359.84409"
       y1="49.020978"
       x2="368.65484"
       y2="49.020978"
       gradientUnits="userSpaceOnUse" />
    <linearGradient
       inkscape:collect="always"
       xlink:href="#linearGradient104"
       id="linearGradient105"
       x1="363.10318"
       y1="39.493767"
       x2="364.82468"
       y2="40.035271"
       gradientUnits="userSpaceOnUse" />
    <linearGradient
       inkscape:collect="always"
       xlink:href="#linearGradient102"
       id="linearGradient106"
       gradientUnits="userSpaceOnUse"
       x1="359.84409"
       y1="49.020978"
       x2="368.65484"
       y2="49.020978" />
    <linearGradient
       inkscape:collect="always"
       xlink:href="#linearGradient102"
       id="linearGradient107"
       gradientUnits="userSpaceOnUse"
       x1="359.84409"
       y1="49.020978"
       x2="368.65484"
       y2="49.020978" />
    <linearGradient
       inkscape:collect="always"
       xlink:href="#linearGradient102"
       id="linearGradient108"
       gradientUnits="userSpaceOnUse"
       x1="359.84409"
       y1="49.020978"
       x2="368.65484"
       y2="49.020978" />
    <linearGradient
       inkscape:collect="always"
       xlink:href="#linearGradient102"
       id="linearGradient109"
       gradientUnits="userSpaceOnUse"
       x1="359.84409"
       y1="49.020978"
       x2="368.65484"
       y2="49.020978" />
    <filter
       inkscape:menu-tooltip="Bright metallic effect for any color"
       inkscape:menu="Bevels"
       inkscape:label="Drop Shadow"
       style="color-interpolation-filters:sRGB;"
       id="filter39"
       x="-3.3305656"
       y="-0.84362912"
       width="7.5505001"
       height="2.659239">
      <feGaussianBlur
         result="result6"
         stdDeviation="8"
         in="SourceGraphic"
         id="feGaussianBlur35" />
      <feComposite
         in2="SourceGraphic"
         in="result6"
         operator="xor"
         result="result10"
         id="feComposite35" />
      <feGaussianBlur
         result="result2"
         stdDeviation="8"
         id="feGaussianBlur36" />
      <feComposite
         in2="SourceGraphic"
         operator="atop"
         in="result10"
         result="result91"
         id="feComposite36" />
      <feComposite
         result="result4"
         in="result2"
         operator="xor"
         in2="result91"
         id="feComposite37" />
      <feGaussianBlur
         in="result4"
         result="result3"
         stdDeviation="4"
         id="feGaussianBlur37" />
      <feSpecularLighting
         result="result5"
         specularExponent="5"
         specularConstant="1.1"
         surfaceScale="18"
         id="feSpecularLighting37">
        <feDistantLight
           azimuth="235"
           elevation="55"
           id="feDistantLight37" />
      </feSpecularLighting>
      <feComposite
         in="result3"
         k3="1.1"
         k2="0.5"
         operator="arithmetic"
         result="result7"
         in2="result5"
         k1="0.5"
         id="feComposite38" />
      <feGaussianBlur
         in="result7"
         result="result8"
         stdDeviation="1"
         id="feGaussianBlur38" />
      <feComposite
         in="result8"
         operator="atop"
         in2="SourceGraphic"
         result="fbSourceGraphic"
         id="feComposite39" />
      <feColorMatrix
         result="fbSourceGraphicAlpha"
         in="fbSourceGraphic"
         values="0 0 0 -1 0 0 0 0 -1 0 0 0 0 -1 0 0 0 0 1 0"
         id="feColorMatrix127" />
      <feFlood
         id="feFlood127"
         result="flood"
         in="fbSourceGraphic"
         flood-opacity="0.145098"
         flood-color="rgb(0,0,0)" />
      <feGaussianBlur
         id="feGaussianBlur127"
         result="blur"
         in="fbSourceGraphic"
         stdDeviation="0.600000" />
      <feOffset
         id="feOffset127"
         result="offset"
         in="blur"
         dx="-1.800000"
         dy="-1.800000" />
      <feComposite
         id="feComposite127"
         result="comp1"
         operator="in"
         in="flood"
         in2="offset" />
      <feComposite
         id="feComposite128"
         result="comp2"
         operator="over"
         in="fbSourceGraphic"
         in2="comp1" />
    </filter>
    <filter
       style="color-interpolation-filters:sRGB;"
       inkscape:label="Drop Shadow"
       id="filter130"
       x="-0.32278487"
       y="-0.011813576"
       width="1.4662448"
       height="1.0170641">
      <feFlood
         result="flood"
         in="SourceGraphic"
         flood-opacity="0.145098"
         flood-color="rgb(0,0,0)"
         id="feFlood128" />
      <feGaussianBlur
         result="blur"
         in="SourceGraphic"
         stdDeviation="0.600000"
         id="feGaussianBlur128" />
      <feOffset
         result="offset"
         in="blur"
         dx="-1.800000"
         dy="-1.800000"
         id="feOffset128" />
      <feComposite
         result="comp1"
         operator="in"
         in="flood"
         in2="offset"
         id="feComposite129" />
      <feComposite
         result="comp2"
         operator="over"
         in="SourceGraphic"
         in2="comp1"
         id="feComposite130" />
    </filter>
    <filter
       style="color-interpolation-filters:sRGB;"
       inkscape:label="Drop Shadow"
       id="filter132"
       x="-0.14328745"
       y="-0.087389036"
       width="1.2069708"
       height="1.1262286">
      <feFlood
         result="flood"
         in="SourceGraphic"
         flood-opacity="0.145098"
         flood-color="rgb(0,0,0)"
         id="feFlood130" />
      <feGaussianBlur
         result="blur"
         in="SourceGraphic"
         stdDeviation="0.600000"
         id="feGaussianBlur130" />
      <feOffset
         result="offset"
         in="blur"
         dx="-1.800000"
         dy="-1.800000"
         id="feOffset130" />
      <feComposite
         result="comp1"
         operator="in"
         in="flood"
         in2="offset"
         id="feComposite131" />
      <feComposite
         result="comp2"
         operator="over"
         in="SourceGraphic"
         in2="comp1"
         id="feComposite132" />
    </filter>
  </defs>
  <g
     inkscape:label="Layer 1"
     inkscape:groupmode="layer"
     id="layer1"
     sodipodi:insensitive="true">
    <rect
       style="fill:#e3e3e3;fill-opacity:1;stroke-width:0.465;stroke-linecap:round;stroke-linejoin:round"
       id="rect1"
       width="468.45108"
       height="351.46286"
       x="0"
       y="0" />
  </g>
  <g
     inkscape:groupmode="layer"
     id="layer2"
     inkscape:label="Layer 2">
    <g
       id="g59"
       style="display:inline"
       transform="translate(9.6320358,-2.9636509)">
      <path
         id="rect2"
         mask="none"
         style="fill:#ffffff;fill-opacity:1;stroke-width:0.465;stroke-linecap:round;stroke-linejoin:round;filter:url(#filter59)"
         d="M 47.85341,34.5736 V 316.88918 H 234.2255 V 34.5736 h -31.24926 c 0.007,0.550221 -0.097,1.13437 -0.0677,1.681035 0.007,0.126188 0.0683,0.245133 0.0791,0.371036 0.0229,0.265124 -0.14873,0.575425 -0.0935,0.834058 0.0118,0.05527 0.0941,0.07703 0.10593,0.132292 0.0737,0.345034 0.0708,0.745812 0.11834,1.099157 0.0106,0.07922 -0.0179,0.158799 -0.0269,0.238229 0.0131,0.24273 0.007,0.487206 0.0393,0.728121 0.0119,0.08857 0.0616,0.167784 0.0925,0.251664 0.0264,0.123587 0.0656,0.24488 0.0791,0.37052 0.132,1.22658 0.46434,2.377124 0.56637,3.56154 0.0271,0.313726 -0.0975,1.177326 -0.0408,1.443322 0.0186,0.08738 0.0806,0.163105 0.0925,0.251665 0.0313,0.232936 -0.17453,0.613397 -0.0935,0.834057 0.0863,0.234743 0.0847,0.322814 0.0527,0.608749 -0.0387,0.345366 -0.32596,1.756173 -0.22686,2.025716 0.1219,0.331698 0.17744,0.533375 0.30592,0.859896 a 4.2206459,4.2206459 0 0 1 3.36517,4.122229 4.2206459,4.2206459 0 0 1 -4.22041,4.220931 4.2206459,4.2206459 0 0 1 -4.22094,-4.220931 4.2206459,4.2206459 0 0 1 4.22094,-4.220415 4.2206459,4.2206459 0 0 1 0.66352,0.05633 c -1.33193,-1.830309 -1.36457,-4.228893 -1.65881,-6.419764 -0.0981,-0.730295 -0.19666,-1.462008 -0.23616,-2.197798 -0.0194,-0.361344 0.0352,-0.725517 5.1e-4,-1.085722 -0.1217,-0.66881 -0.29583,-1.518383 -0.35553,-2.211235 -0.0721,-0.836884 -0.22557,-1.713591 -0.19637,-2.554882 0.009,-0.260527 0.0381,-0.519736 0.0532,-0.779798 h -28.498 c -0.0546,0.217896 -0.12912,0.431692 -0.16329,0.653707 -0.0347,0.22588 -0.0321,0.456387 -0.0677,0.682129 -0.0837,0.529836 -0.20675,1.040474 -0.27285,1.569413 -0.0259,0.2071 -0.12264,0.559125 -0.20464,0.750342 -0.0323,0.07536 -0.11393,0.125799 -0.13643,0.204639 -0.025,0.08746 0.008,0.182261 0,0.272851 -0.0145,0.160139 -0.0394,0.319286 -0.0682,0.477491 -0.0701,0.385615 -0.0822,0.180576 -0.13643,0.613916 -0.066,0.527831 0,1.104812 0,1.637109 0,0.129074 0.041,0.355066 0,0.478007 -0.058,0.174019 -0.0682,0.222188 -0.0682,0.409277 0,0.757497 0.005,1.497213 0.0682,2.251026 0.0527,0.632196 -0.0396,1.277253 0,1.910477 0.01,0.160486 0.0612,0.316844 0.0682,0.477491 0.0237,0.545256 0.0287,1.092093 0,1.637109 -0.0132,0.25083 -0.11712,0.50397 -0.0682,0.750342 0.0349,0.175651 0.20327,0.294908 0.3049,0.44235 l -0.0997,0.03462 a 4.2206459,4.2206459 0 0 1 3.54294,4.160987 4.2206459,4.2206459 0 0 1 -4.22093,4.220931 4.2206459,4.2206459 0 0 1 -4.22042,-4.220931 4.2206459,4.2206459 0 0 1 2.09186,-3.633887 c -0.0669,-0.08316 -0.13343,-0.166295 -0.19533,-0.253215 -0.054,-0.07574 0.0422,-0.257261 0,-0.341581 -0.0144,-0.02876 -0.0538,-0.03945 -0.0682,-0.06821 -0.0417,-0.08347 -0.0417,-0.666872 0,-0.750342 0.0144,-0.02876 0.058,-0.0377 0.0682,-0.06821 0.0548,-0.16439 -0.0423,-0.376646 0,-0.545704 0.0764,-0.305801 0.0901,-0.630852 0.13642,-0.95498 0.031,-0.217 -0.0531,-0.469541 0,-0.682129 0.0123,-0.04934 0.0582,-0.08657 0.0682,-0.136426 0.0223,-0.111493 -0.0276,-0.230756 0,-0.341064 0.0565,-0.22584 0.15764,-0.447781 0.20464,-0.682646 0.1177,-0.5885 0.22218,-1.179058 0.34107,-1.773535 0.0622,-0.312152 -0.0901,0.04387 0.0682,-0.272852 0.0154,-0.06146 -0.0439,-0.297124 0,-0.341064 0.0161,-0.01609 0.058,0.02035 0.0682,0 0.11734,-0.234788 0.13324,-0.568704 0.20464,-0.818555 0.0994,-0.347874 0.21365,-0.668361 0.27285,-1.02371 0.0379,-0.227404 -0.0568,-0.05681 0,-0.341064 0.0231,-0.115535 0.10783,-0.22658 0.13643,-0.341065 0.0165,-0.06618 -0.0216,-0.139918 0,-0.204638 0.0353,-0.10604 0.11463,-0.231913 0.13643,-0.341065 0.0134,-0.06689 -0.0165,-0.138449 0,-0.204639 0.008,-0.0312 0.058,-0.0377 0.0682,-0.06821 0.0288,-0.08629 -0.0288,-0.186562 0,-0.272852 0.0347,-0.103997 0.10572,-0.21826 0.13642,-0.341064 0.0523,-0.209243 0.002,-0.414436 0.0682,-0.613916 0.007,-0.02156 0.0575,0.02035 0.0677,0 0.0792,-0.158353 -0.009,-0.460225 0.0682,-0.613916 0.0646,-0.129188 0.20463,-0.32902 0.20463,-0.477491 0,-0.159992 -0.0161,0.03166 0.0682,-0.136942 0.0258,-0.05168 -0.0142,-0.148019 0,-0.204639 0.0493,-0.19731 0.0669,-0.202073 0.13642,-0.341064 0.0364,-0.07277 -0.0364,-0.200082 0,-0.272852 0.0586,-0.117311 0.0777,-0.22375 0.13643,-0.341064 0.0273,-0.05457 -0.0273,-0.150059 0,-0.204639 0.0712,-0.142452 0.20245,-0.611769 0.27285,-0.682129 0.0161,-0.01609 0.0521,0.01609 0.0682,0 0.0227,-0.02274 0.0455,-0.181909 0.0682,-0.204639 0.0161,-0.01609 0.0521,0.01609 0.0682,0 0.0395,-0.03954 0.0969,-0.233311 0.13643,-0.272851 0.0161,-0.01609 0.0521,0.01609 0.0682,0 0.0517,-0.05179 0.0682,-0.167445 0.12247,-0.24443 H 139.0613 c 0.21913,0.641934 0.3534,1.332156 0.50178,1.999878 0.13522,0.608492 0.23368,1.291036 0.33641,1.907377 0.0542,0.325467 -0.0647,0.686313 0,1.009758 0.0855,0.427519 0.22419,0.89794 0.11214,1.346171 -0.33263,1.330502 -0.51716,2.750136 -0.67283,4.151168 -0.0325,0.292352 -0.092,3.089683 0,3.365686 0.0167,0.05017 0.0954,0.06197 0.11214,0.112138 0.0802,0.240501 0.14993,1.255065 0.15193,1.300695 a 4.2206459,4.2206459 0 0 1 4.22093,4.220415 4.2206459,4.2206459 0 0 1 -4.22093,4.220931 4.2206459,4.2206459 0 0 1 -4.22042,-4.220931 4.2206459,4.2206459 0 0 1 4.22042,-4.220415 c -0.49951,-0.807559 -1.11,-1.555959 -1.4981,-2.422591 -0.093,-0.207608 0.0783,-0.448387 0.11214,-0.673344 0.0785,-0.523012 0.17167,-1.044208 0.22427,-1.570446 0.0484,-0.483741 -0.0373,-0.974107 0,-1.458826 0.14904,-1.937993 0.11214,0.583772 0.11214,-1.346171 0,-1.147474 0.11132,-2.360547 -0.11214,-3.477824 -0.11462,-0.57309 0.17712,-1.488154 0,-2.019515 -0.23383,-0.701539 -0.22624,-1.464581 -0.22117,-2.224154 H 106.4612 c 7.2e-4,0.0033 0.003,0.0059 0.004,0.0093 0.0209,0.104424 -0.0258,0.216048 0,0.31936 0.0499,0.199771 0.20366,0.345676 0.23926,0.559139 0.12341,0.740466 0.31988,1.46097 0.31988,2.236556 0,0.149049 0.0167,0.114141 0.0796,0.239779 0.0308,0.06159 0.0211,0.95366 0,1.03818 -0.0974,0.389403 -0.0796,0.784194 -0.0796,1.197859 0,0.03289 0.0211,0.218639 0,0.239779 -0.0188,0.01884 -0.0612,-0.01881 -0.0801,0 -0.10649,0.106493 0.10649,0.532229 0,0.638721 -0.0188,0.01884 -0.0612,-0.01881 -0.0801,0 -0.0376,0.03765 0,0.10643 0,0.15968 0,0.225716 -0.0707,0.586671 0,0.798917 0.0188,0.05648 0.0612,0.103211 0.0801,0.159681 0.0796,0.238832 -0.025,0.628407 0,0.878499 0.0453,0.45285 0.15298,0.844018 0.23978,1.277958 0.0261,0.13053 -0.0188,0.267683 0,0.399459 0.0463,0.324204 0.0962,0.640618 0.15968,0.958081 0.0209,0.104423 -0.0258,0.216566 0,0.319877 0.10449,0.417944 0.22424,0.868583 0.39946,1.277441 0.189,0.440989 0.63872,1.06296 0.63872,1.517737 0,0.178157 0.15968,0.358574 0.15968,0.559139 0,0.02662 -0.0188,0.06075 0,0.07958 0.0188,0.01881 0.1041,-0.01146 0.0801,0 -0.25126,0.119732 -0.51194,0.218854 -0.76791,0.328145 a 4.2206459,4.2206459 0 0 1 4.22041,4.220415 4.2206459,4.2206459 0 0 1 -4.22093,4.220931 4.2206459,4.2206459 0 0 1 -4.22042,-4.220931 4.2206459,4.2206459 0 0 1 2.58434,-3.882451 l -0.0351,0.0072 c -0.15852,-0.436437 -0.0586,-0.228314 0.0439,-0.01085 a 4.2206459,4.2206459 0 0 1 0.0362,-0.01344 c -0.0535,-0.147602 -0.1023,-0.282299 -0.27647,-0.728638 -0.0274,-0.07015 -0.12908,-0.09087 -0.15968,-0.15968 -0.0787,-0.177112 -0.0984,-0.37527 -0.15968,-0.559139 -0.11551,-0.346546 -0.33786,-0.668656 -0.39946,-1.038179 -0.0131,-0.07878 0.0131,-0.160999 0,-0.239779 -0.063,-0.378302 -0.26476,-0.736127 -0.31936,-1.118278 -0.0264,-0.184489 0.0206,-0.373918 0,-0.559139 -0.0445,-0.400217 -0.12608,-0.794973 -0.15968,-1.19786 -0.0545,-0.654029 0,-1.340419 0,-1.996777 0,-1.744757 0.1958,-3.460311 0.39946,-5.191414 0.10671,-0.907052 0.19948,-1.814612 0.27234,-2.724899 H 75.820695 c 0.04113,0.07578 0.06315,0.172701 0.109554,0.219108 0.01609,0.01609 0.05213,-0.01609 0.06821,0 0.03954,0.03954 0.09689,0.233312 0.136426,0.272852 0.01609,0.01609 0.05213,-0.01609 0.06821,0 0.02273,0.02273 0.04547,0.181899 0.06821,0.204639 0.01609,0.01609 0.05213,-0.01609 0.06821,0 0.07036,0.07036 0.201622,0.540193 0.272852,0.682645 0.02729,0.05458 -0.02729,0.150069 0,0.204639 0.05866,0.117314 0.07778,0.223753 0.136426,0.341064 0.03639,0.07277 -0.03638,0.200082 0,0.272852 0.0695,0.138991 0.08762,0.143754 0.136942,0.341064 0.01416,0.05662 -0.02585,0.152959 0,0.204639 0.0843,0.168606 0.06821,-0.02357 0.06821,0.136426 0,0.148471 0.140049,0.348302 0.204639,0.47749 0.07681,0.153691 -0.01096,0.455563 0.06821,0.613916 0.01016,0.02035 0.06101,-0.02156 0.06821,0 0.06651,0.19948 0.01589,0.404673 0.06821,0.613916 0.0307,0.122804 0.101756,0.237584 0.136426,0.341581 0.02877,0.08629 -0.02876,0.186562 0,0.272852 0.01016,0.03051 0.06041,0.03701 0.06821,0.06821 0.01654,0.06619 -0.01339,0.137748 0,0.204638 0.02183,0.109152 0.101076,0.235025 0.136426,0.341065 0.02156,0.06472 -0.01654,0.138459 0,0.204639 0.02862,0.114485 0.113316,0.225529 0.136426,0.341064 0.05685,0.284254 -0.0379,0.11366 0,0.341064 0.05923,0.355349 0.173461,0.67532 0.272851,1.023194 0.07139,0.249851 0.08725,0.583767 0.204639,0.818555 0.01016,0.02035 0.05213,-0.01609 0.06821,0 0.04394,0.04394 -0.01537,0.279604 0,0.341064 0.15836,0.316718 0.0058,-0.03878 0.06821,0.273368 0.118896,0.594477 0.223364,1.185035 0.341064,1.773535 0.04698,0.234865 0.148179,0.456289 0.204639,0.682129 0.02757,0.110308 -0.0223,0.229572 0,0.341065 0.01,0.04986 0.05588,0.0871 0.06821,0.136426 0.05315,0.212588 -0.031,0.465129 0,0.682129 0.04631,0.324128 0.05998,0.649696 0.136426,0.955497 0.04227,0.169058 -0.0548,0.381313 0,0.545703 0.01016,0.03051 0.05383,0.03945 0.06821,0.06821 0.04174,0.08347 0.04174,0.666872 0,0.750342 -0.01437,0.02876 -0.05383,0.03945 -0.06821,0.06821 -0.04216,0.08432 0.05397,0.265325 0,0.341065 -0.149397,0.209677 -0.319609,0.403387 -0.479558,0.605131 l -0.02945,-0.01034 a 4.2206459,4.2206459 0 0 1 1.627807,3.317627 4.2206459,4.2206459 0 0 1 -4.220931,4.220931 4.2206459,4.2206459 0 0 1 -4.220414,-4.220931 4.2206459,4.2206459 0 0 1 4.220414,-4.220415 c 0.101631,-0.147442 0.270041,-0.266699 0.304891,-0.44235 0.04888,-0.246372 -0.05501,-0.499512 -0.06821,-0.750342 -0.02868,-0.545016 -0.02371,-1.09237 0,-1.637626 0.007,-0.160647 0.05818,-0.317004 0.06821,-0.47749 0.03958,-0.633224 -0.05268,-1.277765 0,-1.909961 0.06281,-0.753813 0.06821,-1.494045 0.06821,-2.251542 0,-0.187089 -0.0102,-0.235259 -0.06821,-0.409278 -0.04098,-0.122941 0,-0.348416 0,-0.47749 0,-0.532297 0.06598,-1.109278 0,-1.637109 -0.05417,-0.43334 -0.06632,-0.228818 -0.136426,-0.614433 -0.02876,-0.158205 -0.05365,-0.317351 -0.06821,-0.47749 -0.0082,-0.09059 0.02498,-0.185392 0,-0.272852 -0.02252,-0.07884 -0.104126,-0.129278 -0.136426,-0.204638 -0.08195,-0.191217 -0.178749,-0.543242 -0.204639,-0.750342 -0.06612,-0.528939 -0.189191,-1.039061 -0.272851,-1.568897 -0.03564,-0.225742 -0.03346,-0.456765 -0.06821,-0.682645 -0.03283,-0.213425 -0.102742,-0.419301 -0.157097,-0.628386 z" />
      <g
         id="g70">
        <path
           style="fill:none;fill-rule:evenodd;stroke:#b6b6c8;stroke-width:1;stroke-linecap:butt;stroke-linejoin:miter;stroke-dasharray:none;stroke-opacity:1"
           d="M 68.556751,78.764045 H 213.52216"
           id="path59"
           inkscape:connector-type="polyline"
           inkscape:connector-curvature="0" />
        <path
           style="fill:none;fill-rule:evenodd;stroke:#b6b6c8;stroke-width:1;stroke-linecap:butt;stroke-linejoin:miter;stroke-dasharray:none;stroke-opacity:1"
           d="M 68.556751,99.930713 H 213.52216"
           id="path60"
           inkscape:connector-type="polyline"
           inkscape:connector-curvature="0" />
        <path
           style="fill:none;fill-rule:evenodd;stroke:#b6b6c8;stroke-width:1;stroke-linecap:butt;stroke-linejoin:miter;stroke-dasharray:none;stroke-opacity:1"
           d="M 68.556751,121.09739 H 213.52216"
           id="path61"
           inkscape:connector-type="polyline"
           inkscape:connector-curvature="0" />
        <path
           style="fill:none;fill-rule:evenodd;stroke:#b6b6c8;stroke-width:1;stroke-linecap:butt;stroke-linejoin:miter;stroke-dasharray:none;stroke-opacity:1"
           d="M 68.556751,142.26407 H 213.52216"
           id="path62"
           inkscape:connector-type="polyline"
           inkscape:connector-curvature="0" />
        <path
           style="fill:none;fill-rule:evenodd;stroke:#b6b6c8;stroke-width:1;stroke-linecap:butt;stroke-linejoin:miter;stroke-dasharray:none;stroke-opacity:1"
           d="M 68.556751,163.43075 H 213.52216"
           id="path63"
           inkscape:connector-type="polyline"
           inkscape:connector-curvature="0" />
        <path
           style="fill:none;fill-rule:evenodd;stroke:#b6b6c8;stroke-width:1;stroke-linecap:butt;stroke-linejoin:miter;stroke-dasharray:none;stroke-opacity:1"
           d="M 68.556751,184.59743 H 213.52216"
           id="path64"
           inkscape:connector-type="polyline"
           inkscape:connector-curvature="0" />
        <path
           style="fill:none;fill-rule:evenodd;stroke:#b6b6c8;stroke-width:1;stroke-linecap:butt;stroke-linejoin:miter;stroke-dasharray:none;stroke-opacity:1"
           d="M 68.556751,205.76411 H 213.52216"
           id="path65"
           inkscape:connector-type="polyline"
           inkscape:connector-curvature="0" />
        <path
           style="fill:none;fill-rule:evenodd;stroke:#b6b6c8;stroke-width:1;stroke-linecap:butt;stroke-linejoin:miter;stroke-dasharray:none;stroke-opacity:1"
           d="M 68.556751,226.93079 H 213.52216"
           id="path66"
           inkscape:connector-type="polyline"
           inkscape:connector-curvature="0" />
        <path
           style="fill:none;fill-rule:evenodd;stroke:#b6b6c8;stroke-width:1;stroke-linecap:butt;stroke-linejoin:miter;stroke-dasharray:none;stroke-opacity:1"
           d="M 68.556751,248.09747 H 213.52216"
           id="path67"
           inkscape:connector-type="polyline"
           inkscape:connector-curvature="0" />
        <path
           style="fill:none;fill-rule:evenodd;stroke:#b6b6c8;stroke-width:1;stroke-linecap:butt;stroke-linejoin:miter;stroke-dasharray:none;stroke-opacity:1"
           d="M 68.556751,269.26415 H 213.52216"
           id="path68"
           inkscape:connector-type="polyline"
           inkscape:connector-curvature="0" />
      </g>
      <path
         style="fill:url(#linearGradient73);stroke:none;stroke-width:1;stroke-linecap:round;stroke-linejoin:round;stroke-dasharray:none;stroke-opacity:1"
         d="M 47.853409,316.88918 C 144.9764,304.16958 207.25063,286.54786 234.2255,258.3128 v 58.57638 z"
         id="path71"
         sodipodi:nodetypes="cccc" />
      <path
         style="fill:url(#linearGradient75);stroke:none;stroke-width:1;stroke-linecap:round;stroke-linejoin:round;stroke-dasharray:none;stroke-opacity:1"
         d="m 47.853409,316.88918 c 99.971371,-16.84983 135.255911,-66.29294 138.585611,-77.04416 19.4985,10.8917 39.34992,29.51562 47.78648,18.46778 0,15.87241 -99.46471,52.843 -186.372091,58.57638 z"
         id="path70"
         sodipodi:nodetypes="cccc" />
    </g>
    <g
       id="g75"
       transform="rotate(-8.1302597,-617.58285,-45.067762)"
       style="filter:url(#filter132)">
      <path
         id="rect75"
         style="stroke:none;stroke-width:1.01824;stroke-linecap:round;stroke-linejoin:round"
         d="m 270.03229,181.01608 h 22.61189 c -2.9178,13.81992 -5.32478,28.15561 0,37.07559 h -22.61189 c 4.68449,-9.08276 2.96521,-23.84828 0,-37.07559 z"
         sodipodi:nodetypes="ccccc" />
      <path
         id="rect77"
         style="fill:url(#linearGradient87);stroke-width:0.73716;stroke-linecap:round;stroke-linejoin:round"
         d="m 282.39658,184.27184 h 4.49775 c -0.54276,10.12997 -0.54276,20.318 0,30.56408 h -4.49775 z"
         sodipodi:nodetypes="ccccc" />
      <path
         id="rect76"
         style="fill:url(#linearGradient82);stroke-width:0.907949;stroke-linecap:round;stroke-linejoin:round"
         d="m 275.57327,184.27184 h 6.82332 v 30.56408 h -6.82332 c 1.19726,-10.34766 1.19726,-20.53569 0,-30.56408 z"
         sodipodi:nodetypes="ccccc" />
      <g
         id="g85">
        <circle
           style="fill:url(#radialGradient85);fill-opacity:1;stroke:none;stroke-width:1;stroke-linecap:round;stroke-linejoin:round;stroke-dasharray:none;stroke-opacity:1"
           id="path77"
           cx="279.44592"
           cy="199.55388"
           r="1.6593995" />
        <path
           sodipodi:type="star"
           style="fill:#8d8d8d;fill-opacity:0.655518;stroke:none;stroke-width:1;stroke-linecap:round;stroke-linejoin:round;stroke-dasharray:none;stroke-opacity:1"
           id="path85"
           inkscape:flatsided="false"
           sodipodi:sides="4"
           sodipodi:cx="279.44592"
           sodipodi:cy="197.89449"
           sodipodi:r1="0.86049747"
           sodipodi:r2="0.3011741"
           sodipodi:arg1="1.8325957"
           sodipodi:arg2="2.6179939"
           inkscape:rounded="0.27"
           inkscape:randomized="0"
           d="m 279.22321,198.72566 c -0.17778,-0.0476 0.0539,-0.5212 -0.0381,-0.68059 -0.092,-0.15939 -0.61799,-0.19552 -0.57035,-0.3733 0.0476,-0.17777 0.5212,0.0539 0.68059,-0.0381 0.15939,-0.092 0.19552,-0.61799 0.3733,-0.57035 0.17777,0.0476 -0.0539,0.5212 0.0381,0.68059 0.092,0.15939 0.61798,0.19552 0.57035,0.3733 -0.0476,0.17777 -0.5212,-0.0539 -0.68059,0.0381 -0.15939,0.092 -0.19552,0.61799 -0.3733,0.57035 z"
           inkscape:transform-center-x="0.090526886"
           inkscape:transform-center-y="0.018345614"
           transform="matrix(1.3593536,0,0,1.3593536,-100.4199,-69.454702)"
           inkscape:label="path85" />
      </g>
    </g>
    <g
       id="g89"
       transform="rotate(-1.0164835,874.04382,-347.84736)"
       style="filter:url(#filter130)">
      <rect
         style="fill:url(#linearGradient89);stroke:none;stroke-width:0.806047;stroke-linecap:round;stroke-linejoin:round;stroke-dasharray:none;stroke-opacity:1"
         id="rect87"
         width="8.8107586"
         height="235.89471"
         x="359.84409"
         y="57.784069" />
      <rect
         style="fill:url(#linearGradient91);stroke:none;stroke-width:1;stroke-linecap:round;stroke-linejoin:round;stroke-dasharray:none;stroke-opacity:1"
         id="rect89"
         width="8.8107586"
         height="10.16468"
         x="359.84409"
         y="293.52948" />
      <path
         id="rect90"
         style="fill:url(#radialGradient93);fill-opacity:0.655518;stroke-linecap:round;stroke-linejoin:round"
         d="m 359.84409,303.69415 h 8.81075 c 0.0112,2.12534 0.42322,4.66451 0,6.3648 -0.48078,1.93152 -7.94598,2.24753 -8.81075,0 -0.63824,-1.65877 -0.004,-4.24603 0,-6.3648 z"
         sodipodi:nodetypes="ccssc" />
      <rect
         style="opacity:1;fill:url(#linearGradient99);stroke:none;stroke-width:0.488419;stroke-linecap:round;stroke-linejoin:round;stroke-dasharray:none;stroke-opacity:1"
         id="rect93"
         width="10.037645"
         height="2.1284332"
         x="359.23065"
         y="295.97598" />
      <rect
         style="opacity:1;fill:url(#linearGradient100);fill-opacity:1;stroke:none;stroke-width:0.488419;stroke-linecap:round;stroke-linejoin:round;stroke-dasharray:none;stroke-opacity:1"
         id="rect99"
         width="10.037645"
         height="2.1284332"
         x="359.23065"
         y="299.68021" />
      <g
         id="g102"
         style="fill:url(#linearGradient103)">
        <path
           id="rect100"
           style="opacity:1;fill:url(#linearGradient106);fill-opacity:1;stroke-linecap:round;stroke-linejoin:round"
           d="m 364.24946,37.372617 4.40538,20.411454 h -8.81075 z"
           sodipodi:nodetypes="cccc" />
        <path
           id="path100"
           style="opacity:1;fill:url(#linearGradient107);stroke-linecap:round;stroke-linejoin:round"
           d="m 363.72396,57.784071 c 0,1.709889 -0.86854,2.885267 -1.93993,2.885267 -1.07139,0 -1.93994,-1.175378 -1.93994,-2.885267 z"
           sodipodi:nodetypes="cscc" />
        <path
           id="path101"
           style="opacity:1;fill:url(#linearGradient108);stroke-linecap:round;stroke-linejoin:round"
           d="m 367.60424,57.784071 c 0,1.709889 -0.86854,2.885267 -1.93993,2.885267 -1.07139,0 -1.93994,-1.175378 -1.93994,-2.885267 z"
           sodipodi:nodetypes="cscc" />
        <path
           id="path102"
           style="opacity:1;fill:url(#linearGradient109);stroke-width:0.520369;stroke-linecap:round;stroke-linejoin:round"
           d="m 368.65484,57.784071 c 0,1.709889 -0.23518,2.885267 -0.5253,2.885267 -0.29011,0 -0.5253,-1.175378 -0.5253,-2.885267 z"
           sodipodi:nodetypes="cscc" />
        <path
           id="path103"
           style="opacity:1;fill:url(#linearGradient105);stroke-width:0.17479;stroke-linecap:round;stroke-linejoin:round"
           d="m 364.24946,37.367595 1.15044,5.335348 c -0.53438,0.34712 -1.80442,0.327921 -2.29673,-0.0192 z"
           sodipodi:nodetypes="cccc" />
      </g>
    </g>
    <g
       id="g133"
       transform="translate(9.6320358,-2.9636509)">
      <path
         style="opacity:1;fill:none;fill-opacity:1;stroke:#909090;stroke-width:1.1;stroke-linecap:round;stroke-linejoin:round;stroke-dasharray:none;stroke-opacity:1;paint-order:normal;filter:url(#filter39)"
         d="m 287.47974,207.96565 c 0,0 0.0831,-15.4905 -4e-5,-26.9977 -0.0832,-11.5072 -16.18888,-10.65908 -16.21251,0 -0.0236,10.65908 -0.0322,46.06781 0,51.46873 0.0322,5.40092 12.43897,6.44359 12.38271,0 -0.0563,-6.44359 0.31925,-35.48089 0.42986,-42.95469 0.11061,-7.4738 -9.14151,-6.49509 -9.02691,0 0.1146,6.49509 0,35.3613 0,35.3613"
         id="path109"
         sodipodi:nodetypes="czzzzzzc" />
      <path
         style="opacity:1;fill:none;fill-opacity:1;stroke:#909090;stroke-width:1.1;stroke-linecap:round;stroke-linejoin:round;stroke-dasharray:none;stroke-opacity:1;paint-order:normal;filter:url(#filter39)"
         d="m 321.34644,196.32397 c 0,0 0.0831,-15.4905 -4e-5,-26.9977 -0.0832,-11.5072 -16.18888,-10.65908 -16.21251,0 -0.0236,10.65908 -0.0322,46.06781 0,51.46873 0.0322,5.40092 12.43897,6.44359 12.38271,0 -0.0563,-6.44359 0.31925,-35.48089 0.42986,-42.95469 0.11061,-7.4738 -9.14151,-6.49509 -9.02691,0 0.1146,6.49509 0,35.3613 0,35.3613"
         id="path132"
         sodipodi:nodetypes="czzzzzzc"
         transform="matrix(0.95994114,0.25721545,-0.25721545,0.95994114,61.956364,-72.640307)" />
      <path
         style="opacity:1;fill:none;fill-opacity:1;stroke:#909090;stroke-width:1.1;stroke-linecap:round;stroke-linejoin:round;stroke-dasharray:none;stroke-opacity:1;paint-order:normal;filter:url(#filter39)"
         d="m 321.34644,196.32397 c 0,0 0.0831,-15.4905 -4e-5,-26.9977 -0.0832,-11.5072 -16.18888,-10.65908 -16.21251,0 -0.0236,10.65908 -0.0322,46.06781 0,51.46873 0.0322,5.40092 12.43897,6.44359 12.38271,0 -0.0563,-6.44359 0.31925,-35.48089 0.42986,-42.95469 0.11061,-7.4738 -9.14151,-6.49509 -9.02691,0 0.1146,6.49509 0,35.3613 0,35.3613"
         id="path133"
         sodipodi:nodetypes="czzzzzzc"
         transform="matrix(-0.4969021,-0.86065968,0.86065968,-0.4969021,302.11146,609.48883)" />
    </g>
  </g>
</svg>
