<?xml version="1.0" encoding="UTF-8"?><svg id="Layer_1" xmlns="http://www.w3.org/2000/svg" xmlns:xlink="http://www.w3.org/1999/xlink" viewBox="0 0 382.05 722.05"><defs><style>.cls-1,.cls-2,.cls-3,.cls-4{fill:none;}.cls-2,.cls-3{stroke:#000;stroke-width:2px;}.cls-2,.cls-3,.cls-4,.cls-5{stroke-miterlimit:10;}.cls-2,.cls-4{stroke-linecap:round;}.cls-6{clip-path:url(#clippath-11);}.cls-7{clip-path:url(#clippath-10);}.cls-8{clip-path:url(#clippath-1);}.cls-9{clip-path:url(#clippath-3);}.cls-10{clip-path:url(#clippath-4);}.cls-11{clip-path:url(#clippath-2);}.cls-12{clip-path:url(#clippath-7);}.cls-13{clip-path:url(#clippath-6);}.cls-14{clip-path:url(#clippath-9);}.cls-15{clip-path:url(#clippath-8);}.cls-16{clip-path:url(#clippath-5);}.cls-4,.cls-5{stroke:#221f20;}.cls-17{clip-path:url(#clippath);}.cls-5{fill:url(#linear-gradient);}</style><clipPath id="clippath"><rect class="cls-1" x="4.05" y=".25" width="27.98" height="14.82"/></clipPath><clipPath id="clippath-1"><rect class="cls-1" x="4.05" y="13.45" width="27.98" height="14.82"/></clipPath><clipPath id="clippath-2"><rect class="cls-1" x="160.74" width="27.98" height="14.82"/></clipPath><clipPath id="clippath-3"><rect class="cls-1" x="160.74" y="13.2" width="27.98" height="14.82"/></clipPath><clipPath id="clippath-4"><rect class="cls-1" x="56.68" y=".16" width="27.98" height="14.82"/></clipPath><clipPath id="clippath-5"><rect class="cls-1" x="56.68" y="13.36" width="27.98" height="14.82"/></clipPath><clipPath id="clippath-6"><rect class="cls-1" x="212.05" y=".25" width="27.98" height="14.82"/></clipPath><clipPath id="clippath-7"><rect class="cls-1" x="212.05" y="13.45" width="27.98" height="14.82"/></clipPath><clipPath id="clippath-8"><rect class="cls-1" x="350.02" y=".25" width="27.98" height="14.82"/></clipPath><clipPath id="clippath-9"><rect class="cls-1" x="350.02" y="13.45" width="27.98" height="14.82"/></clipPath><clipPath id="clippath-10"><rect class="cls-1" x="264.68" y=".16" width="27.98" height="14.82"/></clipPath><clipPath id="clippath-11"><rect class="cls-1" x="264.68" y="13.36" width="27.98" height="14.82"/></clipPath><linearGradient id="linear-gradient" x1="20.42" y1="516.36" x2="361.63" y2="516.36" gradientUnits="userSpaceOnUse"><stop offset="0" stop-color="#000"/><stop offset=".12" stop-color="#fff"/><stop offset=".23" stop-color="#221f20"/><stop offset=".36" stop-color="#fff"/><stop offset=".49" stop-color="#221f20"/><stop offset=".64" stop-color="#fff"/><stop offset=".77" stop-color="#000"/><stop offset=".89" stop-color="#fff"/><stop offset="1" stop-color="#000"/></linearGradient></defs><line class="cls-3" x1="4.23" y1="14.17" x2="161.74" y2="14.17"/><g id="_Mirror_Repeat_"><g class="cls-17"><line class="cls-3" x1="4.48" y1="14.17" x2="31.6" y2="1.15"/></g></g><g id="_Mirror_Repeat_-2"><g class="cls-8"><line class="cls-3" x1="4.48" y1="14.35" x2="31.6" y2="27.37"/></g></g><g id="_Mirror_Repeat_-3"><g class="cls-11"><line class="cls-3" x1="161.18" y1="13.92" x2="188.29" y2=".9"/></g></g><g id="_Mirror_Repeat_-4"><g class="cls-9"><line class="cls-3" x1="161.18" y1="14.1" x2="188.29" y2="27.12"/></g></g><g id="_Mirror_Repeat_-5"><g class="cls-10"><line class="cls-3" x1="84.23" y1="14.08" x2="57.11" y2="1.06"/></g></g><g id="_Mirror_Repeat_-6"><g class="cls-16"><line class="cls-3" x1="84.23" y1="14.26" x2="57.11" y2="27.28"/></g></g><line class="cls-3" x1="212.23" y1="14.17" x2="350.52" y2="14.17"/><g id="_Mirror_Repeat_-7"><g class="cls-13"><line class="cls-3" x1="212.48" y1="14.17" x2="239.6" y2="1.15"/></g></g><g id="_Mirror_Repeat_-8"><g class="cls-12"><line class="cls-3" x1="212.48" y1="14.35" x2="239.6" y2="27.37"/></g></g><g id="_Mirror_Repeat_-9"><g class="cls-15"><line class="cls-3" x1="350.46" y1="14.17" x2="377.57" y2="1.15"/></g></g><g id="_Mirror_Repeat_-10"><g class="cls-14"><line class="cls-3" x1="350.46" y1="14.35" x2="377.57" y2="27.37"/></g></g><g id="_Mirror_Repeat_-11"><g class="cls-7"><line class="cls-3" x1="292.23" y1="14.08" x2="265.11" y2="1.06"/></g></g><g id="_Mirror_Repeat_-12"><g class="cls-6"><line class="cls-3" x1="292.23" y1="14.26" x2="265.11" y2="27.28"/></g></g><line class="cls-3" x1="21.92" y1="96.61" x2="69.06" y2="96.61"/><line class="cls-2" x1="21.92" y1="96.61" x2="10.09" y2="108.43"/><line class="cls-2" x1="69.06" y1="96.61" x2="80.88" y2="108.43"/><line class="cls-3" x1="21.92" y1="116.19" x2="69.06" y2="116.19"/><line class="cls-2" x1="21.92" y1="116.19" x2="16" y2="128.35"/><line class="cls-2" x1="69.06" y1="116.19" x2="74.97" y2="128.35"/><line class="cls-3" x1="21.92" y1="135.86" x2="69.06" y2="135.86"/><line class="cls-2" x1="21.92" y1="135.86" x2="21.92" y2="148.18"/><line class="cls-2" x1="69.06" y1="135.86" x2="69.06" y2="148.18"/><line class="cls-3" x1="21.92" y1="78.15" x2="69.06" y2="78.15"/><line class="cls-2" x1="21.92" y1="78.15" x2="1" y2="87.4"/><line class="cls-2" x1="69.06" y1="78.15" x2="89.97" y2="87.4"/><line class="cls-2" x1="150.02" y1="71.11" x2="227.81" y2="71.11"/><line class="cls-2" x1="150.02" y1="118.69" x2="227.81" y2="118.69"/><line class="cls-2" x1="132.82" y1="110.6" x2="264.49" y2="110.6"/><line class="cls-2" x1="150.02" y1="71.11" x2="132.82" y2="110.6"/><line class="cls-2" x1="227.81" y1="71.11" x2="264.49" y2="110.6"/><line class="cls-2" x1="167.01" y1="154.33" x2="216.19" y2="154.33"/><line class="cls-2" x1="150.02" y1="118.69" x2="167.01" y2="154.33"/><line class="cls-2" x1="227.81" y1="118.69" x2="216.19" y2="154.33"/><line class="cls-2" x1="336.17" y1="64.82" x2="291.29" y2="156.38"/><line class="cls-2" x1="336.17" y1="64.82" x2="381.05" y2="156.38"/><line class="cls-2" x1="318.51" y1="100.85" x2="354.13" y2="100.85"/><line class="cls-2" x1="318.51" y1="139.04" x2="354.13" y2="139.04"/><path class="cls-2" d="M184.32,190.71c-13.11,0-24.7,6.46-31.79,16.35,7.09,9.9,18.69,16.35,31.79,16.35s24.7-6.46,31.79-16.35c-7.09-9.9-18.69-16.35-31.79-16.35Z"/><path class="cls-2" d="M289.23,179.34c-17.64,0-32.54,11.68-37.42,27.73,4.87,16.05,19.78,27.73,37.42,27.73s32.54-11.68,37.42-27.73c-4.87-16.05-19.78-27.73-37.42-27.73Z"/><path class="cls-2" d="M55.41,207.07c6.63,5.16,14.95,8.25,24.01,8.25s17.38-3.08,24.01-8.25c-6.63-5.16-14.95-8.25-24.01-8.25s-17.38,3.08-24.01,8.25Z"/><circle class="cls-2" cx="93.53" cy="303.53" r="13.64"/><circle class="cls-2" cx="268.1" cy="303.53" r="13.64"/><circle class="cls-2" cx="66.83" cy="303.53" r="7.37"/><circle class="cls-2" cx="74.65" cy="322.41" r="7.37"/><circle class="cls-2" cx="93.53" cy="330.23" r="7.37"/><circle class="cls-2" cx="112.4" cy="322.41" r="7.37"/><circle class="cls-2" cx="120.22" cy="303.53" r="7.37"/><circle class="cls-2" cx="112.4" cy="284.65" r="7.37"/><circle class="cls-2" cx="93.53" cy="276.83" r="7.37"/><circle class="cls-2" cx="74.65" cy="284.65" r="7.37"/><circle class="cls-2" cx="230.89" cy="303.53" r="17.29"/><circle class="cls-2" cx="249.49" cy="335.76" r="17.29"/><circle class="cls-2" cx="286.71" cy="335.76" r="17.29"/><circle class="cls-2" cx="305.31" cy="303.53" r="17.29"/><circle class="cls-2" cx="286.71" cy="271.3" r="17.29"/><circle class="cls-2" cx="249.49" cy="271.3" r="17.29"/><line class="cls-2" x1="40.13" y1="375.51" x2="341.93" y2="375.51"/><line class="cls-2" x1="55.72" y1="366.01" x2="73.74" y2="384.02"/><line class="cls-2" x1="87.72" y1="366.01" x2="105.74" y2="384.02"/><line class="cls-2" x1="119.72" y1="366.01" x2="137.74" y2="384.02"/><line class="cls-2" x1="151.72" y1="366.01" x2="169.74" y2="384.02"/><line class="cls-2" x1="183.72" y1="366.01" x2="201.74" y2="384.02"/><line class="cls-2" x1="215.72" y1="366.01" x2="233.74" y2="384.02"/><line class="cls-2" x1="247.72" y1="366.01" x2="265.74" y2="384.02"/><line class="cls-2" x1="279.72" y1="366.01" x2="297.74" y2="384.02"/><line class="cls-2" x1="311.72" y1="366.01" x2="329.74" y2="384.02"/><line class="cls-2" x1="341.93" y1="402.19" x2="40.13" y2="402.19"/><line class="cls-2" x1="326.33" y1="392.69" x2="308.32" y2="410.71"/><line class="cls-2" x1="294.33" y1="392.69" x2="276.32" y2="410.71"/><line class="cls-2" x1="262.33" y1="392.69" x2="244.32" y2="410.71"/><line class="cls-2" x1="230.33" y1="392.69" x2="212.32" y2="410.71"/><line class="cls-2" x1="198.33" y1="392.69" x2="180.32" y2="410.71"/><line class="cls-2" x1="166.33" y1="392.69" x2="148.32" y2="410.71"/><line class="cls-2" x1="134.33" y1="392.69" x2="116.32" y2="410.71"/><line class="cls-2" x1="102.33" y1="392.69" x2="84.32" y2="410.71"/><line class="cls-2" x1="70.33" y1="392.69" x2="52.32" y2="410.71"/><line class="cls-2" x1="40.13" y1="428.88" x2="341.93" y2="428.88"/><line class="cls-2" x1="55.72" y1="419.37" x2="73.74" y2="437.39"/><line class="cls-2" x1="87.72" y1="419.37" x2="105.74" y2="437.39"/><line class="cls-2" x1="119.72" y1="419.37" x2="137.74" y2="437.39"/><line class="cls-2" x1="151.72" y1="419.37" x2="169.74" y2="437.39"/><line class="cls-2" x1="183.72" y1="419.37" x2="201.74" y2="437.39"/><line class="cls-2" x1="215.72" y1="419.37" x2="233.74" y2="437.39"/><line class="cls-2" x1="247.72" y1="419.37" x2="265.74" y2="437.39"/><line class="cls-2" x1="279.72" y1="419.37" x2="297.74" y2="437.39"/><line class="cls-2" x1="311.72" y1="419.37" x2="329.74" y2="437.39"/><line class="cls-2" x1="341.93" y1="455.56" x2="40.13" y2="455.56"/><line class="cls-2" x1="326.33" y1="446.06" x2="308.32" y2="464.08"/><line class="cls-2" x1="294.33" y1="446.06" x2="276.32" y2="464.08"/><line class="cls-2" x1="262.33" y1="446.06" x2="244.32" y2="464.08"/><line class="cls-2" x1="230.33" y1="446.06" x2="212.32" y2="464.08"/><line class="cls-2" x1="198.33" y1="446.06" x2="180.32" y2="464.08"/><line class="cls-2" x1="166.33" y1="446.06" x2="148.32" y2="464.08"/><line class="cls-2" x1="134.33" y1="446.06" x2="116.32" y2="464.08"/><line class="cls-2" x1="102.33" y1="446.06" x2="84.32" y2="464.08"/><line class="cls-2" x1="70.33" y1="446.06" x2="52.32" y2="464.08"/><rect class="cls-5" x="20.42" y="493.72" width="341.21" height="45.26"/><line class="cls-4" x1="144.9" y1="576.1" x2="204.04" y2="590.32"/><line class="cls-4" x1="204.04" y1="590.32" x2="249.15" y2="621.01"/><line class="cls-4" x1="141.9" y1="581.29" x2="201.04" y2="595.52"/><line class="cls-4" x1="201.04" y1="595.52" x2="246.15" y2="626.2"/><line class="cls-4" x1="138.9" y1="586.49" x2="198.04" y2="600.72"/><line class="cls-4" x1="198.04" y1="600.72" x2="243.15" y2="631.4"/><line class="cls-4" x1="135.9" y1="591.68" x2="195.04" y2="605.91"/><line class="cls-4" x1="195.04" y1="605.91" x2="240.15" y2="636.6"/><line class="cls-4" x1="132.9" y1="596.88" x2="192.04" y2="611.11"/><line class="cls-4" x1="192.04" y1="611.11" x2="237.15" y2="641.79"/><rect class="cls-4" x="151.09" y="590.32" width="52.96" height="52.96"/><rect class="cls-4" x="161.48" y="600.72" width="32.17" height="32.17"/><polygon class="cls-4" points="191.03 657.79 227.51 720.99 191.03 705.19 154.54 720.99 191.03 657.79"/><polygon class="cls-4" points="191.03 662.72 221.82 716.06 191.03 702.73 160.23 716.06 191.03 662.72"/><polygon class="cls-4" points="191.03 668.26 215.42 710.52 191.03 699.95 166.63 710.52 191.03 668.26"/><polygon class="cls-4" points="191.03 673.56 209.31 705.23 191.03 697.31 172.74 705.23 191.03 673.56"/><circle class="cls-4" cx="191.03" cy="689.39" r="24.39"/></svg>