<svg width="500" height="500" viewBox="0 0 500 500" fill="none" xmlns="http://www.w3.org/2000/svg">
<path fill-rule="evenodd" clip-rule="evenodd" d="M8.5e-06 292.1C8.5e-06 368.62 7.62939e-06 406.879 16.0655 435.566C27.4197 455.841 44.1594 472.58 64.4337 483.935C93.1208 500 131.381 500 207.9 500H292.1C368.62 500 406.879 500 435.566 483.935C455.841 472.58 472.58 455.841 483.935 435.566C500 406.879 500 368.62 500 292.1V207.9C500 131.38 500 93.1207 483.935 64.4337C472.58 44.1593 455.841 27.4197 435.566 16.0655C406.879 0 368.62 0 292.1 0H207.9C131.381 0 93.1207 0 64.4337 16.0655C44.1593 27.4197 27.4197 44.1593 16.0655 64.4337C0 93.1207 0 131.38 0 207.9L8.5e-06 292.1Z" fill="url(#paint0_linear_610_159)"/>
<path fill-rule="evenodd" clip-rule="evenodd" d="M308.042 33.5833C235.163 33.5833 176.083 92.663 176.083 165.542C176.083 238.42 235.163 297.5 308.042 297.5C380.92 297.5 440 238.42 440 165.542C440 92.663 380.92 33.5833 308.042 33.5833ZM294.846 99.5624C287.558 99.5624 281.65 105.47 281.65 112.758V152.346H268.454C261.166 152.346 255.258 158.254 255.258 165.542C255.258 172.83 261.166 178.737 268.454 178.737H281.65V191.933H268.454C261.166 191.933 255.258 197.841 255.258 205.129C255.258 212.417 261.166 218.325 268.454 218.325H281.65V231.521C281.65 238.809 287.558 244.717 294.846 244.717C302.134 244.717 308.042 238.809 308.042 231.521V218.325H347.629C354.917 218.325 360.825 212.417 360.825 205.129C360.825 197.841 354.917 191.933 347.629 191.933H308.042V178.737H327.835C340.806 178.737 351.725 174.334 359.434 166.625C367.019 159.04 370.722 149.012 370.722 139.15C370.722 129.288 367.019 119.26 359.434 111.675C351.725 103.966 340.806 99.5624 327.835 99.5624H294.846ZM308.042 125.954V152.346H327.835C334.659 152.346 338.585 150.151 340.773 147.963C343.085 145.651 344.33 142.483 344.33 139.15C344.33 135.816 343.085 132.648 340.773 130.337C338.585 128.149 334.659 125.954 327.835 125.954H308.042Z" fill="url(#paint1_linear_610_159)"/>
<path d="M347.817 244.299C354.143 256.499 358.768 269.507 361.564 282.962C364.263 295.958 365.298 309.245 364.643 322.502C363.978 335.567 361.592 348.488 357.547 360.928C353.517 373.368 347.94 385.253 340.948 396.303C326.376 419.248 305.923 437.871 281.715 450.232C269.568 456.516 256.619 461.111 243.227 463.889C190.528 474.785 135.978 457.222 99.5358 417.625C71.5841 387.344 57.1164 347.017 59.4437 305.873C60.2052 292.83 62.5956 279.934 66.5592 267.486C70.5064 255.032 76.0674 243.15 83.1003 232.141C90.2282 221.015 98.7456 210.843 108.447 201.872C110.504 199.966 112.617 198.12 114.786 196.336C101.243 186.166 96.5527 167.97 103.494 152.521C110.434 137.071 127.153 128.493 143.751 131.865C160.349 135.237 172.395 149.659 172.757 166.592C175.409 165.891 178.091 165.247 180.793 164.691C193.781 161.978 207.064 160.947 220.314 161.623C274.515 164.462 323.102 195.954 347.827 244.27L347.817 244.299ZM325.847 255.64C320.615 245.376 314.003 235.878 306.195 227.409C291.225 211.128 272.269 199.031 251.198 192.311C240.767 188.951 229.944 186.955 219.001 186.374C207.891 185.805 196.753 186.671 185.865 188.953C174.566 191.303 163.641 195.187 153.394 200.497C143.16 205.708 133.693 212.304 125.26 220.099C117.124 227.616 109.983 236.143 104.01 245.471C98.1115 254.695 93.4463 264.652 90.133 275.087C86.8126 285.509 84.808 296.306 84.1661 307.226C82.3171 341.693 94.4234 375.453 117.754 400.89C125.301 409.071 133.875 416.239 143.263 422.217C171.414 440.179 205.468 446.434 238.165 439.647C249.389 437.325 260.243 433.478 270.423 428.212C290.704 417.843 307.841 402.236 320.058 383.011C325.923 373.757 330.599 363.8 333.974 353.376C337.367 342.953 339.363 332.126 339.911 321.179C340.462 310.069 339.596 298.934 337.332 288.043C334.994 276.771 331.123 265.872 325.827 255.649L325.847 255.64ZM288.469 243.817C301.099 257.637 309.807 274.58 313.691 292.894C315.529 301.78 316.238 310.862 315.803 319.926C315.35 328.758 313.737 337.493 311.005 345.904C308.258 354.41 304.453 362.537 299.679 370.094C294.812 377.715 288.979 384.673 282.323 390.795C275.44 397.119 267.732 402.481 259.41 406.735C251.168 410.99 242.386 414.103 233.304 415.987C197.418 423.411 160.27 411.441 135.47 384.462C116.525 363.911 106.711 336.562 108.266 308.654C108.801 299.733 110.438 290.912 113.139 282.392C115.819 273.96 119.588 265.914 124.35 258.457C129.223 250.86 135.046 243.917 141.678 237.795C148.499 231.499 156.149 226.166 164.417 221.945C172.725 217.646 181.579 214.496 190.735 212.583C199.597 210.736 208.658 210.03 217.699 210.482C235.516 211.459 252.785 216.987 267.857 226.538C275.446 231.386 282.38 237.19 288.489 243.807L288.469 243.817ZM155.785 343.308C152.736 337.375 145.454 335.037 139.52 338.086C133.587 341.136 131.249 348.418 134.298 354.351C137.347 360.284 144.629 362.623 150.563 359.573C156.496 356.524 158.834 349.242 155.785 343.308ZM231.995 242.397L193.698 297.984C190.15 303.673 188.069 310.154 187.643 316.845L186.423 384.336C186.31 390.027 188.862 390.847 192.094 386.173L230.38 330.566C233.926 324.877 236.007 318.396 236.436 311.706L237.675 244.204C237.768 238.523 235.216 237.704 231.995 242.397ZM205.477 301.507C198.415 305.137 195.632 313.804 199.262 320.867C202.891 327.929 211.559 330.712 218.621 327.082C225.683 323.453 228.466 314.785 224.837 307.723C221.207 300.66 212.54 297.878 205.477 301.507ZM166.737 252.814C169.792 258.732 177.058 261.065 182.987 258.031L183.045 258.001C188.973 254.955 191.309 247.679 188.262 241.751C185.216 235.823 177.94 233.487 172.012 236.534L171.935 236.574C166.007 239.62 163.671 246.896 166.717 252.824L166.737 252.814ZM125.799 172.919C128.851 178.858 136.14 181.198 142.079 178.146C148.017 175.094 150.358 167.805 147.305 161.867C144.253 155.928 136.965 153.588 131.026 156.64C125.087 159.692 122.747 166.98 125.799 172.919ZM257.342 375.737C254.287 369.819 247.016 367.495 241.095 370.542C235.174 373.59 232.84 380.858 235.881 386.783C238.921 392.707 246.186 395.05 252.115 392.016L252.134 392.006C254.984 390.542 257.135 388.003 258.112 384.951C259.089 381.9 258.812 378.584 257.342 375.737ZM273.501 268.973C267.581 272.029 265.257 279.304 268.309 285.226C271.362 291.148 278.636 293.476 284.559 290.427C290.483 287.378 292.816 280.106 289.77 274.18C288.302 271.336 285.764 269.192 282.715 268.219C279.666 267.246 276.355 267.524 273.511 268.992L273.501 268.973Z" fill="#C5E0FF"/>
<defs>
<linearGradient id="paint0_linear_610_159" x1="307.266" y1="493.353" x2="192.734" y2="6.64725" gradientUnits="userSpaceOnUse">
<stop stop-color="#6D9EFF"/>
<stop offset="1" stop-color="#0279FF"/>
</linearGradient>
<linearGradient id="paint1_linear_610_159" x1="176.083" y1="165.542" x2="440" y2="165.542" gradientUnits="userSpaceOnUse">
<stop stop-color="#71B3FF"/>
<stop offset="1" stop-color="#B3D6FF"/>
</linearGradient>
</defs>
</svg>
